<svg viewBox="0 0 1000 600" xmlns="http://www.w3.org/2000/svg">
  <!-- Definição de gradientes -->
  <defs>
    <linearGradient id="gradientTrajetoria" x1="0%" y1="0%" x2="100%" y2="0%">
      <stop offset="0%" stop-color="#1E3A8A" />
      <stop offset="100%" stop-color="#3B82F6" />
    </linearGradient>
    <linearGradient id="gradientRegiao1" x1="0%" y1="0%" x2="100%" y2="0%">
      <stop offset="0%" stop-color="#065F46" />
      <stop offset="100%" stop-color="#10B981" />
    </linearGradient>
    <linearGradient id="gradientRegiao2" x1="0%" y1="0%" x2="100%" y2="0%">
      <stop offset="0%" stop-color="#7E1D5F" />
      <stop offset="100%" stop-color="#EC4899" />
    </linearGradient>
    <linearGradient id="gradientRegiao3" x1="0%" y1="0%" x2="100%" y2="0%">
      <stop offset="0%" stop-color="#92400E" />
      <stop offset="100%" stop-color="#F59E0B" />
    </linearGradient>
    <marker id="arrowhead" markerWidth="10" markerHeight="7" 
    refX="0" refY="3.5" orient="auto">
      <polygon points="0 0, 10 3.5, 0 7" fill="#64748B" />
    </marker>
  </defs>
  
  <!-- Título do diagrama -->
  <text x="500" y="40" font-family="Arial" font-size="24" text-anchor="middle" font-weight="bold">Análise Trajetorial e Pontos Críticos</text>
  <text x="500" y="70" font-family="Arial" font-size="16" text-anchor="middle" font-style="italic">Trajetórias no Espaço Dimensional HH</text>
  
  <!-- Sistema de coordenadas 3D simplificado -->
  <!-- Eixo X (emocional) -->
  <line x1="100" y1="450" x2="900" y2="450" stroke="#0F172A" stroke-width="2"/>
  <text x="920" y="455" font-family="Arial" font-size="14" text-anchor="start" fill="#1E3A8A" font-weight="bold">ℳₑₘₒcᵢₒₙₐₗ</text>
  <text x="900" y="470" font-family="Arial" font-size="12" text-anchor="middle">(v₁-v₄)</text>
  
  <!-- Eixo Y (cognitivo) -->
  <line x1="100" y1="450" x2="100" y2="150" stroke="#0F172A" stroke-width="2"/>
  <text x="95" y="130" font-family="Arial" font-size="14" text-anchor="end" fill="#065F46" font-weight="bold">ℳcₒgₙᵢₜᵢᵥₐ</text>
  <text x="100" y="115" font-family="Arial" font-size="12" text-anchor="middle">(v₅-v₈)</text>
  
  <!-- Eixo Z (autonomia) - representado em perspectiva -->
  <line x1="100" y1="450" x2="170" y2="380" stroke="#0F172A" stroke-width="2" stroke-dasharray="5,5"/>
  <text x="180" y="365" font-family="Arial" font-size="14" text-anchor="middle" fill="#7E1D5F" font-weight="bold">ℳₐᵤₜₒₙₒₘᵢₐ</text>
  <text x="180" y="345" font-family="Arial" font-size="12" text-anchor="middle">(v₉-v₁₀)</text>
  
  <!-- Regiões clínicas -->
  <!-- Região 1: Estado depressivo -->
  <path d="M150,350 Q250,300 270,250 Q330,220 350,240 Q380,260 400,300 Q350,340 300,370 Q250,380 150,350 Z" 
        fill="url(#gradientRegiao1)" fill-opacity="0.2" stroke="#065F46" stroke-width="1.5"/>
  <text x="250" y="300" font-family="Arial" font-size="14" text-anchor="middle" fill="#065F46" font-weight="bold">R_depressivo</text>
  <text x="250" y="318" font-family="Arial" font-size="10" text-anchor="middle" fill="#065F46">v₁ < -3, v₄ > 7, v₉[passado] > v₉[futuro]</text>
  
  <!-- Região 2: Estado ansioso -->
  <path d="M450,280 Q520,250 580,260 Q630,280 650,320 Q630,370 580,390 Q520,400 450,380 Q420,330 450,280 Z" 
        fill="url(#gradientRegiao2)" fill-opacity="0.2" stroke="#7E1D5F" stroke-width="1.5"/>
  <text x="550" y="325" font-family="Arial" font-size="14" text-anchor="middle" fill="#7E1D5F" font-weight="bold">R_ansioso</text>
  <text x="550" y="343" font-family="Arial" font-size="10" text-anchor="middle" fill="#7E1D5F">v₂ > 7, v₃ < 3, v₉[futuro] > v₉[presente]</text>
  
  <!-- Região 3: Estado adaptativo -->
  <path d="M700,230 Q750,200 800,220 Q830,250 820,300 Q780,340 730,330 Q690,310 700,230 Z" 
        fill="url(#gradientRegiao3)" fill-opacity="0.2" stroke="#92400E" stroke-width="1.5"/>
  <text x="750" y="270" font-family="Arial" font-size="14" text-anchor="middle" fill="#92400E" font-weight="bold">R_adaptativo</text>
  <text x="750" y="288" font-family="Arial" font-size="10" text-anchor="middle" fill="#92400E">v₁ > 0, v₆ > 6, v₇ > 6, v₁₀ > 5</text>
  
  <!-- Trajetórias -->
  <!-- Trajetória 1: Cíclica -->
  <path d="M180,340 C220,360 260,350 290,330 C330,300 350,270 330,240 C310,210 270,200 230,230 C190,260 170,300 180,340 Z" 
        fill="none" stroke="url(#gradientTrajetoria)" stroke-width="3"/>
  <text x="250" y="240" font-family="Arial" font-size="14" text-anchor="middle" fill="#1E3A8A">Trajetória Cíclica</text>
  
  <!-- Setas na trajetória cíclica para indicar direção -->
  <path d="M250,345 L260,335 L270,345" stroke="#1E3A8A" stroke-width="2" fill="none"/>
  <path d="M320,270 L330,260 L340,270" stroke="#1E3A8A" stroke-width="2" fill="none"/>
  <path d="M270,215 L260,205 L250,215" stroke="#1E3A8A" stroke-width="2" fill="none"/>
  <path d="M195,270 L185,280 L175,270" stroke="#1E3A8A" stroke-width="2" fill="none"/>
  
  <!-- Trajetória 2: Transição terapêutica -->
  <path d="M300,350 Q350,320 400,330 Q450,340 500,320 Q550,300 600,310 Q650,320 700,290 Q750,260 780,270" 
        fill="none" stroke="#0F172A" stroke-width="3"/>
  <text x="550" y="230" font-family="Arial" font-size="14" text-anchor="middle" fill="#0F172A">Trajetória Terapêutica</text>
  
  <!-- Setas na trajetória terapêutica -->
  <path d="M400,330 L410,325 L405,340" stroke="#0F172A" stroke-width="2" fill="none"/>
  <path d="M600,310 L610,305 L605,320" stroke="#0F172A" stroke-width="2" fill="none"/>
  
  <!-- Pontos críticos -->
  <!-- Bifurcação sela-nó -->
  <circle cx="500" cy="325" r="10" fill="#F59E0B" stroke="#0F172A" stroke-width="2"/>
  <line x1="500" y1="325" x2="500" y2="275" stroke="#0F172A" stroke-width="1.5" stroke-dasharray="4,2"/>
  <text x="500" y="265" font-family="Arial" font-size="14" text-anchor="middle" font-weight="bold" fill="#F59E0B">Bifurcação Sela-nó</text>
  
  <!-- Bifurcação Hopf -->
  <circle cx="290" cy="250" r="10" fill="#F59E0B" stroke="#0F172A" stroke-width="2"/>
  <line x1="290" y="250" x2="350" y2="210" stroke="#0F172A" stroke-width="1.5" stroke-dasharray="4,2"/>
  <text x="360" y="200" font-family="Arial" font-size="14" text-anchor="middle" font-weight="bold" fill="#F59E0B">Bifurcação Hopf</text>
  
  <!-- Janela de intervenção -->
  <circle cx="640" cy="305" r="10" fill="#F59E0B" stroke="#0F172A" stroke-width="2"/>
  <line x1="640" y1="305" x2="640" y2="255" stroke="#0F172A" stroke-width="1.5" stroke-dasharray="4,2"/>
  <text x="640" y="245" font-family="Arial" font-size="14" text-anchor="middle" font-weight="bold" fill="#F59E0B">Janela de Intervenção</text>
  
  <!-- Legenda -->
  <rect x="100" y="500" width="800" height="70" rx="10" fill="#F8FAFC" stroke="#0F172A" stroke-width="1"/>
  <text x="500" y="525" font-family="Arial" font-size="16" text-anchor="middle" font-weight="bold">Tipos de Trajetórias e Pontos Críticos</text>
  
  <!-- Elementos da legenda -->
  <line x1="150" y1="550" x2="200" y2="550" stroke="url(#gradientTrajetoria)" stroke-width="3"/>
  <text x="260" y="555" font-family="Arial" font-size="14" text-anchor="start">Trajetória Cíclica (oscilações repetitivas)</text>
  
  <line x1="450" y1="550" x2="500" y2="550" stroke="#0F172A" stroke-width="3"/>
  <text x="560" y="555" font-family="Arial" font-size="14" text-anchor="start">Trajetória de Transição</text>
  
  <circle cx="750" cy="550" r="8" fill="#F59E0B" stroke="#0F172A" stroke-width="2"/>
  <text x="770" y="555" font-family="Arial" font-size="14" text-anchor="start">Pontos Críticos de Bifurcação</text>
</svg>