<svg viewBox="0 0 800 600" xmlns="http://www.w3.org/2000/svg">
  <!-- Título -->
  <text x="400" y="40" font-family="Arial, sans-serif" font-size="24" font-weight="bold" text-anchor="middle" fill="#1E3A8A">Arquitetura de Integração HEALTH/HEALTH & IREAJE.cloud</text>
  
  <!-- Camada HEALTH/HEALTH - Topo -->
  <rect x="100" y="90" width="600" height="80" rx="5" fill="#EFF6FF" stroke="#1E40AF" stroke-width="2"/>
  <text x="400" y="135" font-family="Arial, sans-serif" font-size="18" font-weight="bold" text-anchor="middle" fill="#1E40AF">HEALTH/HEALTH Framework</text>
  
  <!-- Componentes HEALTH/HEALTH -->
  <rect x="120" y="190" width="170" height="60" rx="5" fill="#DBEAFE" stroke="#3B82F6" stroke-width="2"/>
  <text x="205" y="225" font-family="Arial, sans-serif" font-size="14" font-weight="bold" text-anchor="middle" fill="#1E3A8A">Espaço Vetorial</text>
  
  <rect x="315" y="190" width="170" height="60" rx="5" fill="#DBEAFE" stroke="#3B82F6" stroke-width="2"/>
  <text x="400" y="225" font-family="Arial, sans-serif" font-size="14" font-weight="bold" text-anchor="middle" fill="#1E3A8A">Análise Dimensional</text>
  
  <rect x="510" y="190" width="170" height="60" rx="5" fill="#DBEAFE" stroke="#3B82F6" stroke-width="2"/>
  <text x="595" y="225" font-family="Arial, sans-serif" font-size="14" font-weight="bold" text-anchor="middle" fill="#1E3A8A">Visualização</text>
  
  <!-- DSLs de Integração - Camada Intermediária -->
  <rect x="100" y="280" width="600" height="80" rx="5" fill="#ECFDF5" stroke="#065F46" stroke-width="2"/>
  <text x="400" y="325" font-family="Arial, sans-serif" font-size="18" font-weight="bold" text-anchor="middle" fill="#065F46">DSLs de Integração</text>
  
  <!-- Componentes DSL -->
  <rect x="140" y="380" width="150" height="50" rx="5" fill="#D1FAE5" stroke="#10B981" stroke-width="2"/>
  <text x="215" y="410" font-family="Arial, sans-serif" font-size="14" font-weight="bold" text-anchor="middle" fill="#065F46">.aje</text>
  <text x="215" y="425" font-family="Arial, sans-serif" font-size="10" text-anchor="middle" fill="#065F46">Actions & Journey Events</text>
  
  <rect x="325" y="380" width="150" height="50" rx="5" fill="#D1FAE5" stroke="#10B981" stroke-width="2"/>
  <text x="400" y="410" font-family="Arial, sans-serif" font-size="14" font-weight="bold" text-anchor="middle" fill="#065F46">.ire</text>
  <text x="400" y="425" font-family="Arial, sans-serif" font-size="10" text-anchor="middle" fill="#065F46">Intelligent Relational Events</text>
  
  <rect x="510" y="380" width="150" height="50" rx="5" fill="#D1FAE5" stroke="#10B981" stroke-width="2"/>
  <text x="585" y="410" font-family="Arial, sans-serif" font-size="14" font-weight="bold" text-anchor="middle" fill="#065F46">.e</text>
  <text x="585" y="425" font-family="Arial, sans-serif" font-size="10" text-anchor="middle" fill="#065F46">Eulerian Runtime Language</text>
  
  <!-- IREAJE.cloud Runtime Camada Inferior -->
  <rect x="100" y="460" width="600" height="80" rx="5" fill="#FDF2F8" stroke="#7E1D5F" stroke-width="2"/>
  <text x="400" y="505" font-family="Arial, sans-serif" font-size="18" font-weight="bold" text-anchor="middle" fill="#7E1D5F">Runtime Euleriano IREAJE.cloud</text>
  
  <!-- Setas de Conexão -->
  <!-- HEALTH/HEALTH para DSLs -->
  <line x1="205" y1="250" x2="205" y2="280" stroke="#64748B" stroke-width="2" stroke-dasharray="5,5"/>
  <polygon points="205,290 200,280 210,280" fill="#64748B"/>
  
  <line x1="400" y1="250" x2="400" y2="280" stroke="#64748B" stroke-width="2" stroke-dasharray="5,5"/>
  <polygon points="400,290 395,280 405,280" fill="#64748B"/>
  
  <line x1="595" y1="250" x2="595" y2="280" stroke="#64748B" stroke-width="2" stroke-dasharray="5,5"/>
  <polygon points="595,290 590,280 600,280" fill="#64748B"/>
  
  <!-- DSLs para Runtime -->
  <line x1="215" y1="430" x2="215" y2="460" stroke="#64748B" stroke-width="2"/>
  <polygon points="215,470 210,460 220,460" fill="#64748B"/>
  
  <line x1="400" y1="430" x2="400" y2="460" stroke="#64748B" stroke-width="2"/>
  <polygon points="400,470 395,460 405,460" fill="#64748B"/>
  
  <line x1="585" y1="430" x2="585" y2="460" stroke="#64748B" stroke-width="2"/>
  <polygon points="585,470 580,460 590,460" fill="#64748B"/>
  
  <!-- Runtime para DSLs (bidirecional) -->
  <line x1="180" y1="460" x2="180" y2="430" stroke="#64748B" stroke-width="2"/>
  <polygon points="180,420 175,430 185,430" fill="#64748B"/>
  
  <line x1="365" y1="460" x2="365" y2="430" stroke="#64748B" stroke-width="2"/>
  <polygon points="365,420 360,430 370,430" fill="#64748B"/>
  
  <line x1="550" y1="460" x2="550" y2="430" stroke="#64748B" stroke-width="2"/>
  <polygon points="550,420 545,430 555,430" fill="#64748B"/>
  
  <!-- Componentes do Runtime -->
  <rect x="130" y="550" width="160" height="40" rx="5" fill="#FBCFE8" stroke="#EC4899" stroke-width="2"/>
  <text x="210" y="575" font-family="Arial, sans-serif" font-size="14" font-weight="bold" text-anchor="middle" fill="#7E1D5F">Orquestrador</text>
  
  <rect x="320" y="550" width="160" height="40" rx="5" fill="#FBCFE8" stroke="#EC4899" stroke-width="2"/>
  <text x="400" y="575" font-family="Arial, sans-serif" font-size="14" font-weight="bold" text-anchor="middle" fill="#7E1D5F">Handlers</text>
  
  <rect x="510" y="550" width="160" height="40" rx="5" fill="#FBCFE8" stroke="#EC4899" stroke-width="2"/>
  <text x="590" y="575" font-family="Arial, sans-serif" font-size="14" font-weight="bold" text-anchor="middle" fill="#7E1D5F">Sistema de Eventos</text>
  
  <!-- Conexões Runtime-Componentes -->
  <line x1="210" y1="540" x2="210" y2="550" stroke="#7E1D5F" stroke-width="2"/>
  <line x1="400" y1="540" x2="400" y2="550" stroke="#7E1D5F" stroke-width="2"/>
  <line x1="590" y1="540" x2="590" y2="550" stroke="#7E1D5F" stroke-width="2"/>
</svg>