<?xml version="1.0" encoding="UTF-8"?>
<svg width="800" height="650" xmlns="http://www.w3.org/2000/svg">
  <defs>
    <marker id="arrowhead" markerWidth="10" markerHeight="7" refX="0" refY="3.5" orient="auto">
      <polygon points="0 0, 10 3.5, 0 7" fill="#555"/>
    </marker>
  </defs>
  
  <!-- Background -->
  <rect width="800" height="650" fill="#f8f9fa"/>
  
  <!-- Title -->
  <text x="400" y="40" font-family="Arial" font-size="24" text-anchor="middle" font-weight="bold">Fluxo de Dados IREAJE.NET</text>

  <!-- User Input Section -->
  <rect x="100" y="90" width="600" height="80" rx="10" ry="10" fill="#e3f2fd" stroke="#0288d1" stroke-width="2"/>
  <text x="400" y="115" font-family="Arial" font-size="16" text-anchor="middle" font-weight="bold">Entrada do Usuário</text>
  <text x="400" y="145" font-family="Arial" font-size="14" text-anchor="middle">Ação na interface, upload de documento, mensagem de texto</text>
  
  <!-- Event Recording Section -->
  <rect x="100" y="200" width="600" height="80" rx="10" ry="10" fill="#fff8e1" stroke="#ffa000" stroke-width="2"/>
  <text x="400" y="225" font-family="Arial" font-size="16" text-anchor="middle" font-weight="bold">Registro de Evento (.aje)</text>
  <text x="400" y="255" font-family="Arial" font-size="14" text-anchor="middle">Evento capturado, parseado e armazenado no Cosmos DB</text>
  
  <!-- Pattern Monitoring Section -->
  <rect x="100" y="310" width="280" height="80" rx="10" ry="10" fill="#e1f5fe" stroke="#0288d1" stroke-width="2"/>
  <text x="240" y="335" font-family="Arial" font-size="16" text-anchor="middle" font-weight="bold">Monitoramento (.ire)</text>
  <text x="240" y="365" font-family="Arial" font-size="14" text-anchor="middle">Verificação de padrões</text>
  
  <!-- Flow Selection Section -->
  <rect x="420" y="310" width="280" height="80" rx="10" ry="10" fill="#e8f5e9" stroke="#388e3c" stroke-width="2"/>
  <text x="560" y="335" font-family="Arial" font-size="16" text-anchor="middle" font-weight="bold">Seleção de Fluxo (.e)</text>
  <text x="560" y="365" font-family="Arial" font-size="14" text-anchor="middle">Identificação do fluxo a executar</text>
  
  <!-- Execution Runtime Section -->
  <rect x="100" y="420" width="600" height="100" rx="10" ry="10" fill="#dcedc8" stroke="#689f38" stroke-width="2"/>
  <text x="400" y="445" font-family="Arial" font-size="16" text-anchor="middle" font-weight="bold">Execution Runtime</text>
  <text x="400" y="475" font-family="Arial" font-size="14" text-anchor="middle">Orquestração do fluxo selecionado</text>
  <text x="400" y="495" font-family="Arial" font-size="14" text-anchor="middle">Execução das operações com chamadas aos serviços Azure</text>
  
  <!-- Result Section -->
  <rect x="100" y="550" width="600" height="80" rx="10" ry="10" fill="#bbdefb" stroke="#1976d2" stroke-width="2"/>
  <text x="400" y="575" font-family="Arial" font-size="16" text-anchor="middle" font-weight="bold">Resultados e Resposta</text>
  <text x="400" y="605" font-family="Arial" font-size="14" text-anchor="middle">Retorno à interface do usuário ou ações automatizadas</text>
  
  <!-- Flow Arrows -->
  <path d="M400,170 L400,200" stroke="#555" stroke-width="2" marker-end="url(#arrowhead)" fill="none"/>
  
  <path d="M400,280 L240,310" stroke="#555" stroke-width="2" marker-end="url(#arrowhead)" fill="none"/>
  <path d="M400,280 L560,310" stroke="#555" stroke-width="2" marker-end="url(#arrowhead)" fill="none"/>
  
  <path d="M240,390 L300,420" stroke="#555" stroke-width="2" marker-end="url(#arrowhead)" fill="none"/>
  <path d="M560,390 L500,420" stroke="#555" stroke-width="2" marker-end="url(#arrowhead)" fill="none"/>
  
  <path d="M400,520 L400,550" stroke="#555" stroke-width="2" marker-end="url(#arrowhead)" fill="none"/>
  
  <!-- Context Labels -->
  <text x="420" y="190" font-family="Arial" font-size="12" text-anchor="start" font-style="italic">1. Captura de evento</text>
  <text x="260" y="300" font-family="Arial" font-size="12" text-anchor="start" font-style="italic">2a. Verificação de correlações</text>
  <text x="580" y="300" font-family="Arial" font-size="12" text-anchor="start" font-style="italic">2b. Seleção de fluxo</text>
  <text x="260" y="410" font-family="Arial" font-size="12" text-anchor="start" font-style="italic">3. Ativação do runtime</text>
  <text x="420" y="540" font-family="Arial" font-size="12" text-anchor="start" font-style="italic">4. Retorno do resultado</text>
  
  <!-- Event Context Persistence -->
  <path d="M700,240 L750,240 L750,470 L700,470" stroke="#555" stroke-width="2" fill="none" stroke-dasharray="5,5"/>
  <text x="765" y="350" font-family="Arial" font-size="14" text-anchor="middle" font-weight="bold" writing-mode="tb">Contexto Persistente</text>
  
  <!-- Feedback Loop -->
  <path d="M100,470 L50,470 L50,240 L100,240" stroke="#555" stroke-width="2" fill="none" stroke-dasharray="5,5"/>
  <text x="35" y="350" font-family="Arial" font-size="14" text-anchor="middle" font-weight="bold" writing-mode="tb">Feedback Loop</text>
</svg>