<svg viewBox="0 0 1000 600" xmlns="http://www.w3.org/2000/svg">
  <!-- Definição de gradientes -->
  <defs>
    <linearGradient id="gradientInput" x1="0%" y1="0%" x2="100%" y2="0%">
      <stop offset="0%" stop-color="#1E3A8A" />
      <stop offset="100%" stop-color="#3B82F6" />
    </linearGradient>
    <linearGradient id="gradientOrch" x1="0%" y1="0%" x2="100%" y2="0%">
      <stop offset="0%" stop-color="#065F46" />
      <stop offset="100%" stop-color="#10B981" />
    </linearGradient>
    <linearGradient id="gradientWorker" x1="0%" y1="0%" x2="100%" y2="0%">
      <stop offset="0%" stop-color="#7E1D5F" />
      <stop offset="100%" stop-color="#EC4899" />
    </linearGradient>
    <linearGradient id="gradientOutput" x1="0%" y1="0%" x2="100%" y2="0%">
      <stop offset="0%" stop-color="#92400E" />
      <stop offset="100%" stop-color="#F59E0B" />
    </linearGradient>
    <marker id="arrowhead" markerWidth="10" markerHeight="7" 
    refX="0" refY="3.5" orient="auto">
      <polygon points="0 0, 10 3.5, 0 7" fill="#64748B" />
    </marker>
  </defs>
  
  <!-- Título do diagrama -->
  <text x="500" y="40" font-family="Arial" font-size="24" text-anchor="middle" font-weight="bold">Processamento Paralelo Distribuído</text>
  <text x="500" y="70" font-family="Arial" font-size="16" text-anchor="middle" font-style="italic">Arquitetura Multi-Agente para Análise Dimensional</text>
  
  <!-- Entrada de Dados -->
  <rect x="350" y="100" width="300" height="70" rx="10" fill="url(#gradientInput)" opacity="0.8"/>
  <text x="500" y="130" font-family="Arial" font-size="18" text-anchor="middle" font-weight="bold" fill="white">Entrada de Dados</text>
  <text x="500" y="155" font-family="Arial" font-size="14" text-anchor="middle" fill="white">Transcrição, Áudio, Vetores Dimensionais</text>
  
  <!-- Orquestrador Distribuído -->
  <rect x="250" y="200" width="500" height="90" rx="10" fill="url(#gradientOrch)" opacity="0.8"/>
  <text x="500" y="230" font-family="Arial" font-size="20" text-anchor="middle" font-weight="bold" fill="white">Orquestrador Distribuído</text>
  <text x="500" y="255" font-family="Arial" font-size="14" text-anchor="middle" fill="white">Divisão de Tarefas, Balanceamento de Carga, Controle de Fluxo</text>
  <text x="500" y="275" font-family="Arial" font-size="14" text-anchor="middle" fill="white">Sistema de Filas: RabbitMQ / Apache Kafka</text>
  
  <!-- Workers - Primeira fileira -->
  <rect x="50" y="330" width="160" height="100" rx="10" fill="url(#gradientWorker)" opacity="0.8"/>
  <text x="130" y="360" font-family="Arial" font-size="16" text-anchor="middle" font-weight="bold" fill="white">Worker: Transcrição</text>
  <text x="130" y="380" font-family="Arial" font-size="12" text-anchor="middle" fill="white">Phi-4</text>
  <text x="130" y="400" font-family="Arial" font-size="12" text-anchor="middle" fill="white">Taxa: 2000 tokens/s</text>
  <rect x="60" y="410" width="140" height="10" rx="5" fill="#F8FAFC" fill-opacity="0.3"/>
  
  <rect x="230" y="330" width="160" height="100" rx="10" fill="url(#gradientWorker)" opacity="0.8"/>
  <text x="310" y="360" font-family="Arial" font-size="16" text-anchor="middle" font-weight="bold" fill="white">Worker: Sintático</text>
  <text x="310" y="380" font-family="Arial" font-size="12" text-anchor="middle" fill="white">OpenAI GPT-4o</text>
  <text x="310" y="400" font-family="Arial" font-size="12" text-anchor="middle" fill="white">Taxa: 70 tokens/s</text>
  <rect x="240" y="410" width="140" height="10" rx="5" fill="#F8FAFC" fill-opacity="0.3"/>
  
  <rect x="410" y="330" width="160" height="100" rx="10" fill="url(#gradientWorker)" opacity="0.8"/>
  <text x="490" y="360" font-family="Arial" font-size="16" text-anchor="middle" font-weight="bold" fill="white">Worker: Semântico</text>
  <text x="490" y="380" font-family="Arial" font-size="12" text-anchor="middle" fill="white">Claude 3.5 Sonnet</text>
  <text x="490" y="400" font-family="Arial" font-size="12" text-anchor="middle" fill="white">Taxa: 50 tokens/s</text>
  <rect x="420" y="410" width="140" height="10" rx="5" fill="#F8FAFC" fill-opacity="0.3"/>
  
  <rect x="590" y="330" width="160" height="100" rx="10" fill="url(#gradientWorker)" opacity="0.8"/>
  <text x="670" y="360" font-family="Arial" font-size="16" text-anchor="middle" font-weight="bold" fill="white">Worker: Dimensional</text>
  <text x="670" y="380" font-family="Arial" font-size="12" text-anchor="middle" fill="white">DeepSeek / MAI</text>
  <text x="670" y="400" font-family="Arial" font-size="12" text-anchor="middle" fill="white">Taxa: 40 tokens/s</text>
  <rect x="600" y="410" width="140" height="10" rx="5" fill="#F8FAFC" fill-opacity="0.3"/>
  
  <rect x="770" y="330" width="160" height="100" rx="10" fill="url(#gradientWorker)" opacity="0.8"/>
  <text x="850" y="360" font-family="Arial" font-size="16" text-anchor="middle" font-weight="bold" fill="white">Worker: Embeddings</text>
  <text x="850" y="380" font-family="Arial" font-size="12" text-anchor="middle" fill="white">Cohere</text>
  <text x="850" y="400" font-family="Arial" font-size="12" text-anchor="middle" fill="white">Taxa: 150 tokens/s</text>
  <rect x="780" y="410" width="140" height="10" rx="5" fill="#F8FAFC" fill-opacity="0.3"/>
  
  <!-- Workers - Segunda fileira -->
  <rect x="140" y="440" width="160" height="100" rx="10" fill="url(#gradientWorker)" opacity="0.8"/>
  <text x="220" y="470" font-family="Arial" font-size="16" text-anchor="middle" font-weight="bold" fill="white">Worker: Pragmático</text>
  <text x="220" y="490" font-family="Arial" font-size="12" text-anchor="middle" fill="white">Claude 3.5 Sonnet</text>
  <text x="220" y="510" font-family="Arial" font-size="12" text-anchor="middle" fill="white">Taxa: 50 tokens/s</text>
  <rect x="150" y="520" width="140" height="10" rx="5" fill="#F8FAFC" fill-opacity="0.3"/>
  
  <rect x="320" y="440" width="160" height="100" rx="10" fill="url(#gradientWorker)" opacity="0.8"/>
  <text x="400" y="470" font-family="Arial" font-size="16" text-anchor="middle" font-weight="bold" fill="white">Worker: Trajetorial</text>
  <text x="400" y="490" font-family="Arial" font-size="12" text-anchor="middle" fill="white">DeepSeek / MAI</text>
  <text x="400" y="510" font-family="Arial" font-size="12" text-anchor="middle" fill="white">Taxa: 40 tokens/s</text>
  <rect x="330" y="520" width="140" height="10" rx="5" fill="#F8FAFC" fill-opacity="0.3"/>
  
  <rect x="500" y="440" width="160" height="100" rx="10" fill="url(#gradientWorker)" opacity="0.8"/>
  <text x="580" y="470" font-family="Arial" font-size="16" text-anchor="middle" font-weight="bold" fill="white">Worker: Preditivo</text>
  <text x="580" y="490" font-family="Arial" font-size="12" text-anchor="middle" fill="white">DeepSeek / MAI</text>
  <text x="580" y="510" font-family="Arial" font-size="12" text-anchor="middle" fill="white">Taxa: 40 tokens/s</text>
  <rect x="510" y="520" width="140" height="10" rx="5" fill="#F8FAFC" fill-opacity="0.3"/>
  
  <rect x="680" y="440" width="160" height="100" rx="10" fill="url(#gradientWorker)" opacity="0.8"/>
  <text x="760" y="470" font-family="Arial" font-size="16" text-anchor="middle" font-weight="bold" fill="white">Worker: Integração</text>
  <text x="760" y="490" font-family="Arial" font-size="12" text-anchor="middle" fill="white">OpenAI GPT-4o</text>
  <text x="760" y="510" font-family="Arial" font-size="12" text-anchor="middle" fill="white">Taxa: 70 tokens/s</text>
  <rect x="690" y="520" width="140" height="10" rx="5" fill="#F8FAFC" fill-opacity="0.3"/>
  
  <!-- Saída de Resultados -->
  <rect x="250" y="550" width="500" height="40" rx="10" fill="url(#gradientOutput)" opacity="0.8"/>
  <text x="500" y="575" font-family="Arial" font-size="18" text-anchor="middle" font-weight="bold" fill="white">Resultados Integrados</text>
  
  <!-- Conectores -->
  <line x1="500" y1="170" x2="500" y2="200" stroke="#64748B" stroke-width="2" marker-end="url(#arrowhead)"/>
  
  <!-- Conectores para primeira fileira -->
  <line x1="300" y1="290" x2="130" y2="330" stroke="#64748B" stroke-width="2" marker-end="url(#arrowhead)"/>
  <line x1="375" y1="290" x2="310" y2="330" stroke="#64748B" stroke-width="2" marker-end="url(#arrowhead)"/>
  <line x1="450" y1="290" x2="490" y2="330" stroke="#64748B" stroke-width="2" marker-end="url(#arrowhead)"/>
  <line x1="525" y1="290" x2="670" y2="330" stroke="#64748B" stroke-width="2" marker-end="url(#arrowhead)"/>
  <line x1="600" y1="290" x2="850" y2="330" stroke="#64748B" stroke-width="2" marker-end="url(#arrowhead)"/>
  
  <!-- Conectores para segunda fileira -->
  <line x1="130" y1="430" x2="180" y2="440" stroke="#64748B" stroke-width="1.5" marker-end="url(#arrowhead)"/>
  <line x1="310" y1="430" x2="360" y2="440" stroke="#64748B" stroke-width="1.5" marker-end="url(#arrowhead)"/>
  <line x1="490" y1="430" x2="540" y2="440" stroke="#64748B" stroke-width="1.5" marker-end="url(#arrowhead)"/>
  <line x1="670" y1="430" x2="720" y2="440" stroke="#64748B" stroke-width="1.5" marker-end="url(#arrowhead)"/>
  <line x1="850" y1="430" x2="800" y2="440" stroke="#64748B" stroke-width="1.5" marker-end="url(#arrowhead)"/>
  
  <!-- Conectores para saída -->
  <line x1="220" y1="540" x2="320" y2="550" stroke="#64748B" stroke-width="1.5" marker-end="url(#arrowhead)"/>
  <line x1="400" y1="540" x2="450" y2="550" stroke="#64748B" stroke-width="1.5" marker-end="url(#arrowhead)"/>
  <line x1="580" y1="540" x2="550" y2="550" stroke="#64748B" stroke-width="1.5" marker-end="url(#arrowhead)"/>
  <line x1="760" y1="540" x2="680" y2="550" stroke="#64748B" stroke-width="1.5" marker-end="url(#arrowhead)"/>
  
  <!-- Elementos de cache compartilhado -->
  <rect x="50" y="240" width="170" height="40" rx="5" fill="#F8FAFC" stroke="#0F172A" stroke-width="1"/>
  <text x="135" y="262" font-family="Arial" font-size="12" text-anchor="middle" font-weight="bold">Cache Compartilhado</text>
  <text x="135" y="275" font-family="Arial" font-size="10" text-anchor="middle">Redis / Memcached</text>
  
  <!-- Conexão bi-direcional cache-orquestrador -->
  <line x1="220" y1="260" x2="250" y2="260" stroke="#64748B" stroke-width="1.5" marker-end="url(#arrowhead)"/>
  <line x1="250" y1="245" x2="220" y2="245" stroke="#64748B" stroke-width="1.5" marker-end="url(#arrowhead)"/>
  
  <!-- Estado compartilhado -->
  <rect x="780" y="240" width="170" height="40" rx="5" fill="#F8FAFC" stroke="#0F172A" stroke-width="1"/>
  <text x="865" y="262" font-family="Arial" font-size="12" text-anchor="middle" font-weight="bold">Estado Compartilhado</text>
  <text x="865" y="275" font-family="Arial" font-size="10" text-anchor="middle">Store Vetorial Distribuído</text>
  
  <!-- Conexão bi-direcional estado-orquestrador -->
  <line x1="750" y1="260" x2="780" y2="260" stroke="#64748B" stroke-width="1.5" marker-end="url(#arrowhead)"/>
  <line x1="780" y1="245" x2="750" y2="245" stroke="#64748B" stroke-width="1.5" marker-end="url(#arrowhead)"/>
  
  <!-- Métricas de performance -->
  <rect x="250" y="130" width="70" height="25" rx="3" fill="#F8FAFC" stroke="#1E3A8A" stroke-width="1"/>
  <text x="285" y="147" font-family="Arial" font-size="10" text-anchor="middle" fill="#1E3A8A">~10-15ms Latência</text>
  
  <rect x="680" y="130" width="70" height="25" rx="3" fill="#F8FAFC" stroke="#1E3A8A" stroke-width="1"/>
  <text x="715" y="147" font-family="Arial" font-size="10" text-anchor="middle" fill="#1E3A8A">99.9% Disponibilidade</text>
</svg>