<svg viewBox="0 0 800 800" xmlns="http://www.w3.org/2000/svg">
  <!-- Definição de gradientes e estilos -->
  <defs>
    <linearGradient id="gradientEmocional" x1="0%" y1="0%" x2="100%" y2="0%">
      <stop offset="0%" stop-color="#1E3A8A" />
      <stop offset="100%" stop-color="#3B82F6" />
    </linearGradient>
    <linearGradient id="gradientCognitivo" x1="0%" y1="0%" x2="100%" y2="0%">
      <stop offset="0%" stop-color="#065F46" />
      <stop offset="100%" stop-color="#10B981" />
    </linearGradient>
    <linearGradient id="gradientAutonomia" x1="0%" y1="0%" x2="100%" y2="0%">
      <stop offset="0%" stop-color="#7E1D5F" />
      <stop offset="100%" stop-color="#EC4899" />
    </linearGradient>
    <radialGradient id="fadeBackground" cx="50%" cy="50%" r="50%" fx="50%" fy="50%">
      <stop offset="0%" stop-color="#F8FAFC" stop-opacity="0" />
      <stop offset="100%" stop-color="#F8FAFC" stop-opacity="0.1" />
    </radialGradient>
  </defs>
  
  <!-- Título do diagrama -->
  <text x="400" y="40" font-family="Arial" font-size="24" text-anchor="middle" font-weight="bold">Radar Dimensional ZeoCare</text>
  <text x="400" y="70" font-family="Arial" font-size="16" text-anchor="middle" font-style="italic">Visualização Integrada de 10 Dimensões</text>
  
  <!-- Círculos de referência concêntricos -->
  <circle cx="400" cy="400" r="300" fill="none" stroke="#E2E8F0" stroke-width="1" />
  <circle cx="400" cy="400" r="240" fill="none" stroke="#E2E8F0" stroke-width="1" />
  <circle cx="400" cy="400" r="180" fill="none" stroke="#E2E8F0" stroke-width="1" />
  <circle cx="400" cy="400" r="120" fill="none" stroke="#E2E8F0" stroke-width="1" />
  <circle cx="400" cy="400" r="60" fill="none" stroke="#E2E8F0" stroke-width="1" />
  
  <!-- Rótulos de valores -->
  <text x="405" y="95" font-family="Arial" font-size="12" text-anchor="middle" fill="#64748B">10</text>
  <text x="405" y="155" font-family="Arial" font-size="12" text-anchor="middle" fill="#64748B">8</text>
  <text x="405" y="215" font-family="Arial" font-size="12" text-anchor="middle" fill="#64748B">6</text>
  <text x="405" y="275" font-family="Arial" font-size="12" text-anchor="middle" fill="#64748B">4</text>
  <text x="405" y="335" font-family="Arial" font-size="12" text-anchor="middle" fill="#64748B">2</text>
  
  <!-- Linhas para os 10 eixos dimensionais -->
  <line x1="400" y1="400" x2="400" y2="100" stroke="#64748B" stroke-width="1" />
  <line x1="400" y1="400" x2="572" y2="165" stroke="#64748B" stroke-width="1" />
  <line x1="400" y1="400" x2="635" y2="290" stroke="#64748B" stroke-width="1" />
  <line x1="400" y1="400" x2="635" y2="510" stroke="#64748B" stroke-width="1" />
  <line x1="400" y1="400" x2="572" y2="635" stroke="#64748B" stroke-width="1" />
  <line x1="400" y1="400" x2="400" y2="700" stroke="#64748B" stroke-width="1" />
  <line x1="400" y1="400" x2="228" y2="635" stroke="#64748B" stroke-width="1" />
  <line x1="400" y1="400" x2="165" y2="510" stroke="#64748B" stroke-width="1" />
  <line x1="400" y1="400" x2="165" y2="290" stroke="#64748B" stroke-width="1" />
  <line x1="400" y1="400" x2="228" y2="165" stroke="#64748B" stroke-width="1" />
  
  <!-- Rótulos dos eixos dimensionais -->
  <!-- Dimensão Emocional -->
  <text x="400" y="85" font-family="Arial" font-size="14" text-anchor="middle" font-weight="bold" fill="#1E3A8A">v₁: Valência Emocional</text>
  <text x="585" y="155" font-family="Arial" font-size="14" text-anchor="middle" font-weight="bold" fill="#1E3A8A">v₂: Excitação Emocional</text>
  <text x="650" y="290" font-family="Arial" font-size="14" text-anchor="middle" font-weight="bold" fill="#1E3A8A">v₃: Dominância Emocional</text>
  <text x="650" y="510" font-family="Arial" font-size="14" text-anchor="middle" font-weight="bold" fill="#1E3A8A">v₄: Intensidade Afetiva</text>
  
  <!-- Dimensão Cognitiva -->
  <text x="585" y="650" font-family="Arial" font-size="14" text-anchor="middle" font-weight="bold" fill="#065F46">v₅: Complexidade Sintática</text>
  <text x="400" y="715" font-family="Arial" font-size="14" text-anchor="middle" font-weight="bold" fill="#065F46">v₆: Coerência Narrativa</text>
  <text x="215" y="650" font-family="Arial" font-size="14" text-anchor="middle" font-weight="bold" fill="#065F46">v₇: Flexibilidade Cognitiva</text>
  <text x="150" y="510" font-family="Arial" font-size="14" text-anchor="middle" font-weight="bold" fill="#065F46">v₈: Dissonância Cognitiva</text>
  
  <!-- Dimensão Autonomia -->
  <text x="150" y="290" font-family="Arial" font-size="14" text-anchor="middle" font-weight="bold" fill="#7E1D5F">v₉: Perspectiva Temporal</text>
  <text x="215" y="155" font-family="Arial" font-size="14" text-anchor="middle" font-weight="bold" fill="#7E1D5F">v₁₀: Autocontrole</text>
  
  <!-- Áreas coloridas para cada metadimensão -->
  <!-- Estado atual (exemplo) -->
  <path d="M400,160 L520,210 L535,350 L500,540 L460,620 L400,650 L340,620 L300,540 L265,350 L280,210 Z" 
        fill="none" stroke="#0F172A" stroke-width="3" />
  
  <!-- Pontos de dados nas dimensões -->
  <circle cx="400" cy="160" r="8" fill="#1E3A8A" />
  <circle cx="520" cy="210" r="8" fill="#1E3A8A" />
  <circle cx="535" cy="350" r="8" fill="#1E3A8A" />
  <circle cx="500" cy="540" r="8" fill="#1E3A8A" />
  <circle cx="460" cy="620" r="8" fill="#065F46" />
  <circle cx="400" cy="650" r="8" fill="#065F46" />
  <circle cx="340" cy="620" r="8" fill="#065F46" />
  <circle cx="300" cy="540" r="8" fill="#065F46" />
  <circle cx="265" cy="350" r="8" fill="#7E1D5F" />
  <circle cx="280" cy="210" r="8" fill="#7E1D5F" />
  
  <!-- Áreas coloridas por metadimensão -->
  <path d="M400,160 L520,210 L535,350 L500,540 L400,400 Z" 
        fill="url(#gradientEmocional)" fill-opacity="0.3" stroke="none" />
  <path d="M400,400 L500,540 L460,620 L400,650 L340,620 L300,540 Z" 
        fill="url(#gradientCognitivo)" fill-opacity="0.3" stroke="none" />
  <path d="M400,400 L300,540 L265,350 L280,210 L400,160 Z" 
        fill="url(#gradientAutonomia)" fill-opacity="0.3" stroke="none" />
  
  <!-- Área de alerta (exemplo - ponto crítico) -->
  <circle cx="400" cy="650" r="15" fill="none" stroke="#F59E0B" stroke-width="2" stroke-dasharray="5,5" />
  
  <!-- Estado anterior (para comparação) - linha tracejada -->
  <path d="M400,220 L480,240 L495,370 L470,510 L420,580 L400,590 L380,580 L330,510 L305,370 L320,240 Z" 
        fill="none" stroke="#64748B" stroke-width="2" stroke-dasharray="5,5" />
  
  <!-- Legenda -->
  <rect x="620" y="700" width="150" height="80" rx="5" fill="#F8FAFC" stroke="#0F172A" stroke-width="1" />
  <text x="695" y="720" font-family="Arial" font-size="14" text-anchor="middle" font-weight="bold">Legenda</text>
  
  <circle cx="640" cy="740" r="6" fill="#0F172A" />
  <text x="700" y="744" font-family="Arial" font-size="12" text-anchor="start">Estado Atual</text>
  
  <line x1="630" y1="760" x2="650" y2="760" stroke="#64748B" stroke-width="2" stroke-dasharray="5,5" />
  <text x="700" y="764" font-family="Arial" font-size="12" text-anchor="start">Estado Anterior</text>
  
  <!-- Domínios (Metadimensões) -->
  <rect x="30" y="320" width="110" height="25" rx="5" fill="url(#gradientEmocional)" opacity="0.8"/>
  <text x="85" y="337" font-family="Arial" font-size="12" text-anchor="middle" fill="white">Dim. Emocional</text>
  
  <rect x="30" y="350" width="110" height="25" rx="5" fill="url(#gradientCognitivo)" opacity="0.8"/>
  <text x="85" y="367" font-family="Arial" font-size="12" text-anchor="middle" fill="white">Dim. Cognitiva</text>
  
  <rect x="30" y="380" width="110" height="25" rx="5" fill="url(#gradientAutonomia)" opacity="0.8"/>
  <text x="85" y="397" font-family="Arial" font-size="12" text-anchor="middle" fill="white">Dim. Autonomia</text>
</svg>